# xmcd CD database file
#
# Track frame offsets:
#	150
#	22761
#	38534
#	65557
#	82268
#	104052
#	128637
#	148078
#	173563
#	202412
#	221194
#
# Disc length: 3315 seconds
#
# Revision: 0
# Processed by: cddbd v1.5.2PL0 Copyright (c) Steve Scherf et al.
# Submitted via: CDex 1.51
#
DISCID=a50cf10b
DTITLE=Garrett Lebeau - Rise To The Grind
DYEAR=2013
DGENRE=Blues
TTITLE0=Crazy World
TTITLE1=Brothers
TTITLE2=Broke Down Dream
TTITLE3=Blue Eyed Girls
TTITLE4=Eyes on You
TTITLE5=Dark of the Night
TTITLE6=When Love Was New
TTITLE7=Passionate Fool
TTITLE8=Darkness
TTITLE9=How Come
TTITLE10=Garrett Lebeau - Rise To The Grind
EXTD=YEAR: 2013
EXTT0=
EXTT1=
EXTT2=
EXTT3=
EXTT4=
EXTT5=
EXTT6=
EXTT7=
EXTT8=
EXTT9=
EXTT10=
PLAYORDER=
